{
    "asset" : {
        "generator" : "Khronos glTF Blender I/O v1.8.19",
        "version" : "2.0"
    },
    "scene" : 0,
    "scenes" : [
        {
            "name" : "Scene",
            "nodes" : [
                0
            ]
        }
    ],
    "nodes" : [
        {
            "mesh" : 0,
            "name" : "root"
        }
    ],
    "materials" : [
        {
            "doubleSided" : true,
            "name" : "Material",
            "pbrMetallicRoughness" : {
                "baseColorFactor" : [
                    0.800000011920929,
                    0.800000011920929,
                    0.800000011920929,
                    1
                ],
                "metallicFactor" : 0,
                "roughnessFactor" : 0.4000000059604645
            }
        }
    ],
    "meshes" : [
        {
            "name" : "Cube",
            "primitives" : [
                {
                    "attributes" : {
                        "POSITION" : 0,
                        "NORMAL" : 1,
                        "TEXCOORD_0" : 2
                    },
                    "indices" : 3,
                    "material" : 0
                }
            ]
        }
    ],
    "accessors" : [
        {
            "bufferView" : 0,
            "componentType" : 5126,
            "count" : 112,
            "max" : [
                2.780696392059326,
                2.8519697189331055,
                8.114553451538086
            ],
            "min" : [
                -2.923243522644043,
                -2.8519697189331055,
                -0.00884411484003067
            ],
            "type" : "VEC3"
        },
        {
            "bufferView" : 1,
            "componentType" : 5126,
            "count" : 112,
            "type" : "VEC3"
        },
        {
            "bufferView" : 2,
            "componentType" : 5126,
            "count" : 112,
            "type" : "VEC2"
        },
        {
            "bufferView" : 3,
            "componentType" : 5123,
            "count" : 180,
            "type" : "SCALAR"
        }
    ],
    "bufferViews" : [
        {
            "buffer" : 0,
            "byteLength" : 1344,
            "byteOffset" : 0
        },
        {
            "buffer" : 0,
            "byteLength" : 1344,
            "byteOffset" : 1344
        },
        {
            "buffer" : 0,
            "byteLength" : 896,
            "byteOffset" : 2688
        },
        {
            "buffer" : 0,
            "byteLength" : 360,
            "byteOffset" : 3584
        }
    ],
    "buffers" : [
        {
            "byteLength" : 3944,
            "uri" : "data:application/octet-stream;base64,"
        }
    ]
}
